<?xml version="1.0" encoding="UTF-8" standalone="no"?>
<!-- Created with Inkscape (http://www.inkscape.org/) -->

<svg
   xmlns:dc="http://purl.org/dc/elements/1.1/"
   xmlns:cc="http://creativecommons.org/ns#"
   xmlns:rdf="http://www.w3.org/1999/02/22-rdf-syntax-ns#"
   xmlns:svg="http://www.w3.org/2000/svg"
   xmlns="http://www.w3.org/2000/svg"
   xmlns:sodipodi="http://sodipodi.sourceforge.net/DTD/sodipodi-0.dtd"
   xmlns:inkscape="http://www.inkscape.org/namespaces/inkscape"
   width="62.848976mm"
   height="53.795403mm"
   viewBox="0 0 62.848976 53.795403"
   version="1.1"
   id="svg5362"
   inkscape:version="0.92.0 r15299">
  <defs
     id="defs5356" />
  <sodipodi:namedview
     id="base"
     pagecolor="#ffffff"
     bordercolor="#666666"
     borderopacity="1.0"
     inkscape:pageopacity="0.0"
     inkscape:pageshadow="2"
     inkscape:zoom="0.35"
     inkscape:cx="-331.23028"
     inkscape:cy="-52.625111"
     inkscape:document-units="mm"
     inkscape:current-layer="layer1"
     showgrid="false"
     fit-margin-top="0"
     fit-margin-left="0"
     fit-margin-right="0"
     fit-margin-bottom="0"
     inkscape:window-width="1366"
     inkscape:window-height="715"
     inkscape:window-x="-8"
     inkscape:window-y="-8"
     inkscape:window-maximized="1" />
  <metadata
     id="metadata5359">
    <rdf:RDF>
      <cc:Work
         rdf:about="">
        <dc:format>image/svg+xml</dc:format>
        <dc:type
           rdf:resource="http://purl.org/dc/dcmitype/StillImage" />
        <dc:title></dc:title>
      </cc:Work>
    </rdf:RDF>
  </metadata>
  <g
     inkscape:label="Layer 1"
     inkscape:groupmode="layer"
     id="layer1"
     transform="translate(-70.629083,-81.114204)">
    <g
       transform="translate(-217.66651,-43.394236)"
       style="opacity:1"
       id="g11957">
      <rect
         ry="2.1550078"
         rx="8.9701796"
         y="176.14883"
         x="288.29559"
         height="2.1550078"
         width="55.860447"
         id="rect5512"
         style="opacity:0.38699999;fill:#000000;fill-opacity:1;stroke:none;stroke-width:0.79374993;stroke-linecap:round;stroke-linejoin:round;stroke-miterlimit:4;stroke-dasharray:none;stroke-opacity:1" />
      <rect
         ry="1.7566038"
         rx="24.053791"
         y="130.13574"
         x="305.57449"
         height="7.9046922"
         width="12.041111"
         id="rect5249"
         style="opacity:1;fill:#c87137;fill-opacity:1;stroke:none;stroke-width:0.13229166;stroke-linecap:round;stroke-linejoin:round;stroke-miterlimit:4;stroke-dasharray:none;stroke-opacity:1" />
      <rect
         style="opacity:1;fill:#d1af9a;fill-opacity:1;stroke:none;stroke-width:0.79374993;stroke-linecap:round;stroke-miterlimit:4;stroke-dasharray:none;stroke-opacity:1"
         id="rect4831"
         width="2.6475105"
         height="3.7073898"
         x="310.32083"
         y="140.01315"
         ry="1.3084905" />
      <path
         sodipodi:nodetypes="cscsscscc"
         inkscape:connector-curvature="0"
         id="path4833"
         d="m 311.62954,140.01329 c -0.72503,0 -1.30848,0.58335 -1.30848,1.30825 v 0.0791 c 0.14356,0.0959 0.32551,0.0999 0.50647,0.15266 0.63694,0.18571 1.14084,0.10534 1.63221,0 0.18553,-0.0397 0.3642,-0.058 0.5083,-0.15511 v -0.0766 c 0,-0.7249 -0.58342,-1.30825 -1.30846,-1.30825 z"
         style="opacity:0.669;fill:#bb8a6b;fill-opacity:1;stroke:none;stroke-width:0.79375005;stroke-linecap:round;stroke-miterlimit:4;stroke-dasharray:none;stroke-opacity:1" />
      <ellipse
         style="opacity:1;fill:#d1af9a;fill-opacity:1;stroke:none;stroke-width:0.79374993;stroke-linecap:round;stroke-miterlimit:4;stroke-dasharray:none;stroke-opacity:1"
         id="ellipse4835"
         cx="311.62262"
         cy="134.16959"
         rx="5.4172854"
         ry="7.1674771" />
      <path
         style="opacity:1;fill:#241c1c;fill-opacity:1;stroke:none;stroke-width:0.79374993;stroke-linecap:round;stroke-miterlimit:4;stroke-dasharray:none;stroke-opacity:1"
         d="m 311.41878,125.58914 c -2.88588,0 -5.98099,1.80111 -5.89968,5.55831 1.60033,0.28 8.20956,-0.004 12.24564,-0.004 0.0604,0.004 -0.29717,-0.16744 -0.27729,-0.16524 -0.12231,-3.6046 -2.71812,-5.38952 -5.60399,-5.38952 z"
         id="path4837"
         inkscape:connector-curvature="0"
         sodipodi:nodetypes="scccss" />
      <g
         style="stroke:none;stroke-width:2.21662188"
         id="g4843"
         transform="matrix(0.45117658,0,0,0.45109718,257.40502,88.808312)">
        <circle
           r="0.4956499"
           cy="106.28963"
           cx="119.12613"
           id="circle4839"
           style="opacity:1;fill:#b98565;fill-opacity:1;stroke:none;stroke-width:1.75944364;stroke-linecap:round;stroke-miterlimit:4;stroke-dasharray:none;stroke-opacity:1" />
        <circle
           style="opacity:1;fill:#b98565;fill-opacity:1;stroke:none;stroke-width:1.75944364;stroke-linecap:round;stroke-miterlimit:4;stroke-dasharray:none;stroke-opacity:1"
           id="circle4841"
           cx="121.2126"
           cy="106.28963"
           r="0.4956499" />
      </g>
      <path
         style="opacity:0.09800002;fill:#f9f9f9;fill-opacity:1;stroke:none;stroke-width:0.79374993;stroke-linecap:round;stroke-miterlimit:4;stroke-dasharray:none;stroke-opacity:1"
         d="m 306.81089,132.20556 c -0.21965,0.1108 -0.36677,0.24702 -0.41813,0.39643 l 3.64897,3.64832 c 0.25687,-0.0248 0.50795,-0.0456 0.75417,-0.0605 z"
         id="path4845"
         inkscape:connector-curvature="0" />
      <g
         style="stroke:none;stroke-width:2.21662188"
         id="g4867"
         transform="matrix(0.45117658,0,0,0.45109718,257.40502,88.3309)">
        <g
           style="stroke:none;stroke-width:2.53012633"
           transform="matrix(0.87928295,0,0,0.87291166,14.206925,13.56737)"
           id="g4855">
          <circle
             style="opacity:1;fill:#477fdd;fill-opacity:1;stroke:none;stroke-width:0.75188231;stroke-linecap:round;stroke-miterlimit:4;stroke-dasharray:none;stroke-opacity:1"
             id="circle4847"
             cx="115.41032"
             cy="100.67383"
             r="1.9087008" />
          <circle
             r="0.8580398"
             cy="100.67383"
             cx="115.41032"
             id="circle4849"
             style="opacity:1;fill:#1a1a1a;fill-opacity:1;stroke:none;stroke-width:0.75188231;stroke-linecap:round;stroke-miterlimit:4;stroke-dasharray:none;stroke-opacity:1" />
          <circle
             style="opacity:1;fill:#f9f9f9;fill-opacity:1;stroke:none;stroke-width:0.75188231;stroke-linecap:round;stroke-miterlimit:4;stroke-dasharray:none;stroke-opacity:1"
             id="circle4851"
             cx="114.88499"
             cy="100.07845"
             r="0.29768723" />
          <circle
             r="0.15759909"
             cy="100.07845"
             cx="116.11077"
             id="circle4853"
             style="opacity:0.60799997;fill:#f9f9f9;fill-opacity:1;stroke:none;stroke-width:0.75188231;stroke-linecap:round;stroke-miterlimit:4;stroke-dasharray:none;stroke-opacity:1" />
        </g>
        <g
           style="stroke:none;stroke-width:2.53012633"
           transform="matrix(0.87928295,0,0,0.87291166,23.175142,13.56737)"
           id="g4865">
          <circle
             r="1.9087008"
             cy="100.67383"
             cx="115.41032"
             id="circle4857"
             style="opacity:1;fill:#477fdd;fill-opacity:1;stroke:none;stroke-width:0.75188231;stroke-linecap:round;stroke-miterlimit:4;stroke-dasharray:none;stroke-opacity:1" />
          <circle
             style="opacity:1;fill:#1a1a1a;fill-opacity:1;stroke:none;stroke-width:0.75188231;stroke-linecap:round;stroke-miterlimit:4;stroke-dasharray:none;stroke-opacity:1"
             id="circle4859"
             cx="115.41032"
             cy="100.67383"
             r="0.8580398" />
          <circle
             r="0.29768723"
             cy="100.07845"
             cx="114.88499"
             id="circle4861"
             style="opacity:1;fill:#f9f9f9;fill-opacity:1;stroke:none;stroke-width:0.75188231;stroke-linecap:round;stroke-miterlimit:4;stroke-dasharray:none;stroke-opacity:1" />
          <circle
             style="opacity:0.60799997;fill:#f9f9f9;fill-opacity:1;stroke:none;stroke-width:0.75188231;stroke-linecap:round;stroke-miterlimit:4;stroke-dasharray:none;stroke-opacity:1"
             id="circle4863"
             cx="116.11077"
             cy="100.07845"
             r="0.15759909" />
        </g>
      </g>
      <path
         style="opacity:0.34800002;fill:#000000;fill-opacity:1;stroke:none;stroke-width:0.79374987;stroke-linecap:round;stroke-miterlimit:4;stroke-dasharray:none;stroke-opacity:1"
         d="m 308.30295,131.47722 h 6.27394 c 1.07038,0 1.9321,0.41611 1.9321,0.933 0,0 0.51312,2.24449 0,3.0813 -0.39525,0.64456 -0.88551,1.03794 -1.9321,0.77744 -2.14892,-0.53484 -3.83701,-0.40113 -6.27394,0 -1.05977,0.17445 -1.53685,-0.13288 -1.93209,-0.77744 -0.51313,-0.83682 0,-3.0813 0,-3.0813 0,-0.51689 0.86171,-0.933 1.93209,-0.933 z"
         id="path4869"
         inkscape:connector-curvature="0"
         sodipodi:nodetypes="sssassass" />
      <g
         style="stroke:none;stroke-width:1.71085608"
         id="g4881"
         transform="matrix(0.584446,0.01123899,-0.01124097,0.58434315,251.37397,72.179402)">
        <path
           transform="scale(0.26458333)"
           id="path4875"
           d="m 390.08398,418.39453 a 7.6875002,7.6875002 0 0 0 -0.084,1.0625 7.6875002,7.6875002 0 0 0 7.6875,7.6875 7.6875002,7.6875002 0 0 0 7.6875,-7.6875 7.6875002,7.6875002 0 0 0 -0.082,-1.0625 z"
           style="opacity:1;fill:#1a1a1a;fill-opacity:1;stroke:none;stroke-width:5.13256741;stroke-linecap:round;stroke-miterlimit:4;stroke-dasharray:none;stroke-opacity:1"
           inkscape:connector-curvature="0" />
        <path
           transform="scale(0.26458333)"
           id="path4877"
           d="m 400.0625,418.89453 a 6.3124998,6.3124998 0 0 0 -6.3125,6.3125 6.3124998,6.3124998 0 0 0 0.0684,0.88477 7.6875002,7.6875002 0 0 0 3.86914,1.05273 7.6875002,7.6875002 0 0 0 7.42188,-5.71875 6.3124998,6.3124998 0 0 0 -5.04688,-2.53125 z"
           style="opacity:1;fill:#d40000;fill-opacity:1;stroke:none;stroke-width:5.13256741;stroke-linecap:round;stroke-miterlimit:4;stroke-dasharray:none;stroke-opacity:1"
           inkscape:connector-curvature="0" />
        <path
           transform="scale(0.26458333)"
           id="path4879"
           d="m 390.08398,418.39453 a 7.6875001,7.6875001 0 0 0 -0.084,1.0625 7.6875001,7.6875001 0 0 0 0.13867,1.4375 h 15.09571 a 7.6875001,7.6875001 0 0 0 0.14062,-1.4375 7.6875001,7.6875001 0 0 0 -0.082,-1.0625 z"
           style="opacity:1;fill:#f9f9f9;fill-opacity:1;stroke:none;stroke-width:5.13256741;stroke-linecap:round;stroke-miterlimit:4;stroke-dasharray:none;stroke-opacity:1"
           inkscape:connector-curvature="0" />
      </g>
      <path
         sodipodi:nodetypes="cccccccc"
         inkscape:connector-curvature="0"
         id="path4883"
         d="m 311.86522,126.33044 c 0,0 0.45297,0.38172 1.22807,0.57443 m 1.04247,0.32557 c 0.48692,0.2601 1.15728,0.29549 1.58121,0.84536 0.14545,0.19094 0.43124,-0.0292 0.28374,-0.21851 -1.62049,-2.10189 -4.16633,-1.88367 -4.16633,-1.88367 h -2e-5 c -0.23792,0.0205 -0.20706,0.37739 0.0308,0.35682"
         style="color:#000000;font-style:normal;font-variant:normal;font-weight:normal;font-stretch:normal;font-size:medium;line-height:normal;font-family:sans-serif;font-variant-ligatures:normal;font-variant-position:normal;font-variant-caps:normal;font-variant-numeric:normal;font-variant-alternates:normal;font-feature-settings:normal;text-indent:0;text-align:start;text-decoration:none;text-decoration-line:none;text-decoration-style:solid;text-decoration-color:#000000;letter-spacing:normal;word-spacing:normal;text-transform:none;writing-mode:lr-tb;direction:ltr;text-orientation:mixed;dominant-baseline:auto;baseline-shift:baseline;text-anchor:start;white-space:normal;shape-padding:0;clip-rule:nonzero;display:inline;overflow:visible;visibility:visible;opacity:1;isolation:auto;mix-blend-mode:normal;color-interpolation:sRGB;color-interpolation-filters:linearRGB;solid-color:#000000;solid-opacity:1;vector-effect:none;fill:none;fill-opacity:1;fill-rule:evenodd;stroke:none;stroke-width:0.79374993;stroke-linecap:round;stroke-linejoin:round;stroke-miterlimit:4;stroke-dasharray:none;stroke-dashoffset:0;stroke-opacity:1;color-rendering:auto;image-rendering:auto;shape-rendering:auto;text-rendering:auto;enable-background:accumulate" />
      <g
         id="g4889"
         style="opacity:0.45899999;fill:none;stroke:#c8b7b7;stroke-width:0.58648127;stroke-miterlimit:4;stroke-dasharray:none"
         transform="matrix(0.45117658,0,0,0.45109718,257.40502,88.808312)">
        <path
           style="color:#000000;font-style:normal;font-variant:normal;font-weight:normal;font-stretch:normal;font-size:medium;line-height:normal;font-family:sans-serif;font-variant-ligatures:normal;font-variant-position:normal;font-variant-caps:normal;font-variant-numeric:normal;font-variant-alternates:normal;font-feature-settings:normal;text-indent:0;text-align:start;text-decoration:none;text-decoration-line:none;text-decoration-style:solid;text-decoration-color:#000000;letter-spacing:normal;word-spacing:normal;text-transform:none;writing-mode:lr-tb;direction:ltr;text-orientation:mixed;dominant-baseline:auto;baseline-shift:baseline;text-anchor:start;white-space:normal;shape-padding:0;clip-rule:nonzero;display:inline;overflow:visible;visibility:visible;opacity:1;isolation:auto;mix-blend-mode:normal;color-interpolation:sRGB;color-interpolation-filters:linearRGB;solid-color:#000000;solid-opacity:1;vector-effect:none;fill:none;fill-opacity:1;fill-rule:evenodd;stroke:#c8b7b7;stroke-width:0.58648127;stroke-linecap:round;stroke-linejoin:round;stroke-miterlimit:4;stroke-dasharray:none;stroke-dashoffset:0;stroke-opacity:1;color-rendering:auto;image-rendering:auto;shape-rendering:auto;text-rendering:auto;enable-background:accumulate"
           d="m 112.82495,85.132811 c -2.98723,1.775816 -3.63318,4.534212 -3.57207,4.376143"
           id="path4885"
           inkscape:connector-curvature="0"
           sodipodi:nodetypes="cc" />
        <path
           sodipodi:nodetypes="cc"
           inkscape:connector-curvature="0"
           id="path4887"
           d="m 118.08485,83.256354 c -2.8404,0.217209 -4.20994,1.295447 -4.10293,1.23097"
           style="color:#000000;font-style:normal;font-variant:normal;font-weight:normal;font-stretch:normal;font-size:medium;line-height:normal;font-family:sans-serif;font-variant-ligatures:normal;font-variant-position:normal;font-variant-caps:normal;font-variant-numeric:normal;font-variant-alternates:normal;font-feature-settings:normal;text-indent:0;text-align:start;text-decoration:none;text-decoration-line:none;text-decoration-style:solid;text-decoration-color:#000000;letter-spacing:normal;word-spacing:normal;text-transform:none;writing-mode:lr-tb;direction:ltr;text-orientation:mixed;dominant-baseline:auto;baseline-shift:baseline;text-anchor:start;white-space:normal;shape-padding:0;clip-rule:nonzero;display:inline;overflow:visible;visibility:visible;opacity:1;isolation:auto;mix-blend-mode:normal;color-interpolation:sRGB;color-interpolation-filters:linearRGB;solid-color:#000000;solid-opacity:1;vector-effect:none;fill:none;fill-opacity:1;fill-rule:evenodd;stroke:#c8b7b7;stroke-width:0.58648127;stroke-linecap:round;stroke-linejoin:round;stroke-miterlimit:4;stroke-dasharray:none;stroke-dashoffset:0;stroke-opacity:1;color-rendering:auto;image-rendering:auto;shape-rendering:auto;text-rendering:auto;enable-background:accumulate" />
      </g>
      <g
         id="g4895"
         transform="matrix(0.39308611,0,0,0.45109718,223.05142,88.214547)"
         style="fill:#cccccc;fill-opacity:1;stroke:none;stroke-width:2.37476754">
        <rect
           ry="4.0202222"
           rx="6.8348236"
           y="170.14568"
           x="229.77893"
           height="21.396116"
           width="12.619689"
           id="rect4891"
           style="opacity:1;fill:#cccccc;fill-opacity:1;stroke:none;stroke-width:1.88497162;stroke-linecap:round;stroke-miterlimit:4;stroke-dasharray:none;stroke-opacity:1" />
        <rect
           style="opacity:1;fill:#cccccc;fill-opacity:1;stroke:none;stroke-width:1.88497162;stroke-linecap:round;stroke-miterlimit:4;stroke-dasharray:none;stroke-opacity:1"
           id="rect4893"
           width="12.619689"
           height="21.396116"
           x="210.14981"
           y="170.14568"
           rx="6.8348236"
           ry="4.0202222" />
      </g>
      <g
         style="fill:#241c1c;fill-opacity:1;stroke:none;stroke-width:1.92563188;stroke-miterlimit:4;stroke-dasharray:none"
         transform="matrix(0.39300977,0,0,0.4323321,291.28209,93.726635)"
         id="g4901">
        <rect
           style="opacity:1;fill:#241c1c;fill-opacity:1;stroke:none;stroke-width:1.92563188;stroke-linecap:round;stroke-miterlimit:4;stroke-dasharray:none;stroke-opacity:1"
           id="rect4897"
           width="18.334326"
           height="28.137022"
           x="34.289543"
           y="141.00711"
           rx="3.3501492"
           ry="8.2271652" />
        <rect
           ry="8.2271652"
           rx="3.3501492"
           y="141.27173"
           x="52.810375"
           height="28.137022"
           width="18.334326"
           id="rect4899"
           style="opacity:1;fill:#241c1c;fill-opacity:1;stroke:none;stroke-width:1.92563188;stroke-linecap:round;stroke-miterlimit:4;stroke-dasharray:none;stroke-opacity:1" />
      </g>
      <g
         id="g4917"
         transform="matrix(0.39308611,0,0,0.47276463,291.27807,87.483317)"
         style="fill:#e16c1e;fill-opacity:1;stroke:none;stroke-width:2.31970978">
        <path
           style="opacity:1;fill:#e16c1e;fill-opacity:1;stroke:none;stroke-width:1.68709159;stroke-linecap:round;stroke-miterlimit:4;stroke-dasharray:none;stroke-opacity:1"
           d="m 45.059491,116.37374 h 5.853501 9.288213 c 6.174876,0 11.145986,3.85685 11.145986,8.64765 v 18.18222 c 0,4.7908 -10.714114,9.02182 -16.88899,9.02182 h -3.240028 c -6.174877,0 -17.304667,-4.23102 -17.304667,-9.02182 v -18.18222 c 0,-4.7908 4.971109,-8.64765 11.145985,-8.64765 z"
           id="path4907"
           inkscape:connector-curvature="0"
           sodipodi:nodetypes="scssssssss" />
        <g
           id="g4915"
           transform="matrix(1,0,0,-1,0.41257787,271.09839)"
           style="fill:#e16c1e;fill-opacity:1;stroke:none;stroke-width:2.31970978">
          <path
             inkscape:connector-curvature="0"
             id="circle4909"
             d="m 56.570903,132.78975 a 4.3731642,4.3731642 0 0 1 -4.373164,4.37316 4.3731642,4.3731642 0 0 1 -4.373165,-4.37316 4.3731642,4.3731642 0 0 1 4.373165,-4.37317 4.3731642,4.3731642 0 0 1 4.373164,4.37317 z"
             style="opacity:1;fill:#e16c1e;fill-opacity:1;stroke:none;stroke-width:1.84126949;stroke-linecap:round;stroke-miterlimit:4;stroke-dasharray:none;stroke-opacity:1" />
          <path
             inkscape:connector-curvature="0"
             id="circle4911"
             d="m 50.699957,139.62283 a 2.4198434,2.4198434 0 0 1 -2.419844,2.41985 2.4198434,2.4198434 0 0 1 -2.419843,-2.41985 2.4198434,2.4198434 0 0 1 2.419843,-2.41984 2.4198434,2.4198434 0 0 1 2.419844,2.41984 z"
             style="opacity:1;fill:#e16c1e;fill-opacity:1;stroke:none;stroke-width:1.84126949;stroke-linecap:round;stroke-miterlimit:4;stroke-dasharray:none;stroke-opacity:1" />
        </g>
      </g>
      <path
         style="opacity:1;fill:#241c1c;fill-opacity:1;stroke:none;stroke-width:0.79374993;stroke-linecap:round;stroke-miterlimit:4;stroke-dasharray:none;stroke-opacity:1"
         d="m 305.75442,130.89953 c -0.39754,0.10593 -0.74239,0.33122 -0.74239,0.74257 v 0.3853 c 0,0.27822 0.15329,0.51674 0.37867,0.64394 v 2.15648 c 0,0.40233 0.32409,0.72636 0.72649,0.72636 h 0.17629 c 0.4024,0 0.72648,-0.32403 0.72648,-0.72636 0,0 -0.48512,-1.57281 0,-2.05785 1.15259,-1.15239 8.33784,-0.78586 9.12385,0 0.48513,0.48504 0,2.05785 0,2.05785 0,0.40233 0.32409,0.72636 0.72649,0.72636 h 0.17629 c 0.4024,0 0.72649,-0.32403 0.72649,-0.72636 v -2.10016 c 0.29306,-0.0993 0.50405,-0.37288 0.50405,-0.70026 v -0.3853 c 0,-0.41135 -0.3457,-0.63353 -0.7424,-0.74257 -4.23554,-1.16429 -7.36932,-1.17578 -11.78031,0 z"
         id="path4871"
         inkscape:connector-curvature="0"
         sodipodi:nodetypes="ssscsssssssssscssss" />
      <path
         style="opacity:0.56800022;fill:#666666;fill-opacity:1;stroke:none;stroke-width:0.79374993;stroke-linecap:round;stroke-miterlimit:4;stroke-dasharray:none;stroke-opacity:1"
         d="m 311.81376,130.21784 c -1.83448,-0.001 -3.69071,0.28391 -5.86098,0.86052 -0.32667,0.0868 -0.61616,0.25596 -0.7031,0.54411 h 0.15038 c 0.1332,-0.11745 0.31321,-0.19901 0.50743,-0.25061 2.17027,-0.57661 4.0265,-0.86197 5.86098,-0.86053 1.83448,0.001 3.6472,0.28954 5.73113,0.86053 0.19319,0.0529 0.37265,0.13412 0.50592,0.25061 h 0.24272 c -0.0872,-0.28743 -0.37743,-0.4548 -0.70336,-0.54411 -2.08392,-0.57097 -3.89664,-0.85912 -5.73112,-0.86052 z"
         id="path4873"
         inkscape:connector-curvature="0" />
      <rect
         ry="2.4187112"
         rx="2.3725197"
         y="172.35831"
         x="305.42923"
         height="4.9605656"
         width="5.4189234"
         id="rect4929"
         style="opacity:1;fill:#241c1c;fill-opacity:1;stroke:none;stroke-width:0.79374993;stroke-linecap:round;stroke-miterlimit:4;stroke-dasharray:none;stroke-opacity:1" />
      <rect
         style="opacity:1;fill:#241c1c;fill-opacity:1;stroke:none;stroke-width:0.79374993;stroke-linecap:round;stroke-miterlimit:4;stroke-dasharray:none;stroke-opacity:1"
         id="rect4931"
         width="5.4189234"
         height="4.9605656"
         x="313.2251"
         y="172.35831"
         rx="2.3725197"
         ry="2.4187112" />
      <path
         inkscape:connector-curvature="0"
         id="rect5251"
         d="m 311.95716,147.06603 c 4.11983,0 7.43654,0.69739 7.43654,1.56365 v 2.21518 c 0,0.86627 -3.31671,1.56368 -7.43654,1.56368 -4.11982,0 -7.43653,-0.69741 -7.43653,-1.56368 v -2.21518 c 0,-0.86626 3.31671,-1.56365 7.43653,-1.56365 z"
         style="opacity:1;fill:#cccccc;fill-opacity:1;stroke:none;stroke-width:0.13229166;stroke-linecap:round;stroke-linejoin:round;stroke-miterlimit:4;stroke-dasharray:none;stroke-opacity:1" />
      <rect
         transform="matrix(0.29032099,0.95692932,-0.9569577,0.29022744,0,0)"
         ry="2.5811923"
         rx="0"
         y="-264.08087"
         x="227.91092"
         height="5.1623845"
         width="13.26163"
         id="rect5276"
         style="opacity:1;fill:#e16c1e;fill-opacity:1;stroke:none;stroke-width:0.13229166;stroke-linecap:round;stroke-linejoin:round;stroke-miterlimit:4;stroke-dasharray:none;stroke-opacity:1" />
      <rect
         style="opacity:1;fill:#e57e39;fill-opacity:1;stroke:none;stroke-width:0.13229166;stroke-linecap:round;stroke-linejoin:round;stroke-miterlimit:4;stroke-dasharray:none;stroke-opacity:1"
         id="rect5282"
         width="9.9674425"
         height="5.1615524"
         x="311.85211"
         y="150.05997"
         rx="0"
         ry="2.5807762" />
      <rect
         style="opacity:1;fill:#1a1a1a;fill-opacity:1;stroke:none;stroke-width:0.13229167;stroke-linecap:round;stroke-linejoin:round;stroke-miterlimit:4;stroke-dasharray:none;stroke-opacity:1"
         id="rect5292"
         width="6.200213"
         height="5.9462547"
         x="-316.13028"
         y="149.74609"
         rx="0"
         ry="1.5267284"
         transform="scale(-1,1)" />
      <path
         style="opacity:1;fill:#864c24;fill-opacity:1;stroke:none;stroke-width:0.77975965;stroke-linecap:round;stroke-miterlimit:4;stroke-dasharray:none;stroke-opacity:1"
         d="m 299.62535,158.9339 c 0.22695,-0.0177 0.48526,-0.0943 0.73613,-0.22896 l 44.54281,-23.8924 c 0.45651,-0.24485 0.74544,-0.60614 0.75015,-0.89663 0.0766,-0.10048 0.14959,-0.20376 0.21723,-0.3094 l 4.8576,-7.58094 c 0.5593,-0.87285 0.5529,-1.54899 -0.0145,-1.51597 -0.56735,0.0331 -1.47427,0.76256 -2.03356,1.63538 l -4.85784,7.58096 c -0.0664,0.10357 -0.12416,0.2043 -0.17457,0.30157 l -43.96374,23.5818 c -0.57345,0.30757 -0.88431,0.79945 -0.6968,1.10308 0.10536,0.17068 0.34523,0.24453 0.63706,0.22151 z"
         id="path4919"
         inkscape:connector-curvature="0" />
      <rect
         style="opacity:1;fill:#e16c1e;fill-opacity:1;stroke:none;stroke-width:0.13229166;stroke-linecap:round;stroke-linejoin:round;stroke-miterlimit:4;stroke-dasharray:none;stroke-opacity:1"
         id="rect5294"
         width="13.26163"
         height="5.1623845"
         x="46.848831"
         y="332.91171"
         rx="0"
         ry="2.5811923"
         transform="matrix(-0.290321,0.95692932,0.9569577,0.29022744,0,0)" />
      <rect
         transform="scale(-1,1)"
         ry="2.5807762"
         rx="0"
         y="150.05997"
         x="-312.01068"
         height="5.1615524"
         width="9.9674425"
         id="rect5296"
         style="opacity:1;fill:#e57e39;fill-opacity:1;stroke:none;stroke-width:0.13229166;stroke-linecap:round;stroke-linejoin:round;stroke-miterlimit:4;stroke-dasharray:none;stroke-opacity:1" />
      <rect
         ry="1.5670235"
         rx="0"
         y="149.65735"
         x="307.19989"
         height="6.1031942"
         width="6.200213"
         id="rect5298"
         style="opacity:1;fill:#272727;fill-opacity:1;stroke:none;stroke-width:0.13229167;stroke-linecap:round;stroke-linejoin:round;stroke-miterlimit:4;stroke-dasharray:none;stroke-opacity:1" />
    </g>
  </g>
</svg>
